# AST/ASF file generated using VICON BodyLanguage
# -----------------------------------------------
:version 1.10
:name VICON
:units
  mass 1.0
  length 0.45
  angle deg
:documentation
   .ast/.asf automatically generated from VICON data using
   VICON BodyBuilder and BodyLanguage model FoxedUp or BRILLIANT.MOD
:root
   order TX TY TZ RX RY RZ
   axis XYZ
   position 0 0 0  
   orientation 0 0 0 
:bonedata
  begin
     id 1 
     name lhipjoint
     direction 0.610259 -0.730986 0.305356 
     length 2.50941 
     axis 0 0 0  XYZ
  end
  begin
     id 2 
     name lfemur
     direction 0.34202 -0.939693 0  
     length 7.48822  
     axis 0 0 20  XYZ
    dof rx ry rz
    limits (-160.0 20.0)
           (-70.0 70.0)
           (-60.0 70.0)
  end
  begin
     id 3 
     name ltibia
     direction 0.34202 -0.939693 0   
     length 7.60141   
     axis 0 0 20   XYZ
    dof rx
    limits (-10.0 170.0)
  end
  begin
     id 4 
     name lfoot
     direction 0.0673488 -0.185039 0.980421   
     length 2.04049   
     axis -90 7.62852e-016 20   XYZ
    dof rx rz
    limits (-45.0 90.0)
           (-70.0 20.0)
  end
  begin
     id 5 
     name ltoes
     direction 1.5356e-011 -4.21729e-011 1   
     length 1.02897   
     axis -90 7.62852e-016 20   XYZ
    dof rx
    limits (-90.0 20.0)
  end
  begin
     id 6 
     name rhipjoint
     direction -0.57612 -0.754205 0.315056   
     length 2.43216  
     axis 0 0 0  XYZ 
  end
  begin
     id 7 
     name rfemur
     direction -0.34202 -0.939693 0   
     length 7.42799   
     axis 0 0 -20   XYZ
    dof rx ry rz
    limits (-160.0 20.0)
           (-70.0 70.0)
           (-70.0 60.0)
  end
  begin
     id 8 
     name rtibia
     direction -0.34202 -0.939693 0   
     length 7.69484   
     axis 0 0 -20   XYZ
    dof rx
    limits (-10.0 170.0)
 end
 begin
     id 9 
     name rfoot
     direction -0.111837 -0.30727 0.945028   
     length 2.15769  
     axis -90 -7.62852e-016 -20   XYZ
    dof rx rz
    limits (-45.0 90.0)
           (-20.0 70.0)
  end
  begin
     id 10 
     name rtoes
     direction -1.53539e-011 -4.21878e-011 1   
     length 1.07391   
     axis -90 -7.62852e-016 -20   XYZ
    dof rx
    limits (-90.0 20.0)
  end
  begin
     id 11 
     name lowerback
     direction 0.00552624 0.990109 -0.140195   
     length 2.12403   
     axis 0 0 0   XYZ
    dof rx ry rz
    limits (-20.0 45.0)
           (-30.0 30.0)
           (-30.0 30.0)
  end
  begin
     id 12 
     name upperback
     direction 0.00361898 0.999976 -0.00584723   
     length 2.13232   
     axis 0 0 0   XYZ
    dof rx ry rz
    limits (-20.0 45.0)
           (-30.0 30.0)
           (-30.0 30.0)
  end
  begin
     id 13 
     name thorax
     direction -0.000331275 0.998253 0.0590847   
     length 2.17688   
     axis 0 0 0   XYZ
    dof rx ry rz
    limits (-20.0 45.0)
           (-30.0 30.0)
           (-30.0 30.0)
  end
  begin
     id 14 
     name lowerneck
     direction -0.0561561 0.979832 0.19177   
     length 1.64159   
     axis 0 0 0   XYZ
    dof rx ry rz
    limits (-20.0 45.0)
           (-30.0 30.0)
           (-30.0 30.0)
  end
  begin
     id 15 
     name upperneck
     direction 0.0827153 0.979385 -0.184293   
     length 1.68939   
     axis 0 0 0   XYZ
    dof rx ry rz
    limits (-20.0 45.0)
           (-30.0 30.0)
           (-30.0 30.0)
  end
  begin
     id 16
     name head
     direction 0.0278583 0.995936 -0.0856488  
     length 1.70207  
     axis 0 0 0   XYZ
    dof rx ry rz
    limits (-20.0 45.0)
           (-30.0 30.0)
           (-30.0 30.0)
  end
  begin
     id 17 
     name lclavicle
     direction 0.950993 0.301131 -0.0702275  
     length 3.41652  
     axis 0 0 0   XYZ
    dof ry rz
    limits (-20.0 10.0)
           (0.0 20.0)
  end
  begin
     id 18 
     name lhumerus
     direction 1 -4.48981e-011 -3.9662e-029   
     length 5.32955   
     axis 180 -30 -90   XYZ
    dof rx ry rz
    limits (-60.0 90.0)
           (-90.0 90.0)
           (-90.0 90.0)
  end
  begin
     id 19
     name lradius
     direction 1 -4.48925e-011 -9.0549e-027   
     length 3.69232   
     axis 180 -30 -90   XYZ
    dof rx
    limits (-10.0 170.0)
  end
  begin
     id 20
     name lwrist
     direction 1 -4.49007e-011 -1.49005e-026   
     length 1.84616   
     axis 9.0955e-015 90 90   XYZ
    dof ry
    limits (-180.0 0.0)
 end
  begin
     id 21 
     name lhand
     direction 1 -4.49016e-011 -2.98023e-026   
     length 0.536598   
     axis 1.90115e-014 90 90   XYZ
    dof rx rz
    limits (-90.0 90.0)
           (-45.0 45.0)
  end
  begin
     id 22 
     name lfingers
     direction 1 -4.48924e-011 -5.9578e-026   
     length 0.432619   
     axis 3.80223e-014 90 90   XYZ
    dof rx
    limits (0.0 90.0)
  end
  begin
     id 23
     name lthumb
     direction 0.707107 -6.34947e-011 0.707107   
     length 0.621157   
     axis -90 45 -3.84942e-014   XYZ
    dof rx rz
    limits (-45.0 45.0)
           (-45.0 45.0)
  end
  begin
     id 24 
     name rclavicle
     direction -0.955495 0.276497 -0.102848   
     length 3.36357  
     axis 0 0 0   XYZ 
    dof ry rz
    limits (-10.0 20.0)
           (-20.0 0.0)
  end
  begin
     id 25 
     name rhumerus
     direction -1 -4.48961e-011 3.30983e-027  
     length 5.23431   
     axis 180 30 90   XYZ
    dof rx ry rz
    limits (-90.0 60.0)
           (-90.0 90.0)
           (-90.0 90.0)
  end
  begin
     id 26 
     name rradius
     direction -1 -4.48965e-011 -6.63263e-027   
     length 3.55301   
     axis 180 30 90   XYZ
    dof rx
    limits (-10.0 170.0)
  end
  begin
     id 27 
     name rwrist
     direction -1 -4.48942e-011 -1.48958e-026   
     length 1.77651   
     axis 9.0955e-015 -90 -90   XYZ
    dof ry
    limits (-180.0 0.0)
  end
  begin
     id 28
     name rhand
     direction -1 -4.48977e-011 -2.97966e-026   
     length 0.772522   
     axis 1.90115e-014 -90 -90   XYZ
    dof rx rz
    limits (-90.0 90.0)
           (-45.0 45.0)
  end
  begin
     id 29
     name rfingers
     direction -1 -4.49135e-011 -5.96389e-026   
     length 0.622827   
     axis 3.80223e-014 -90 -90   XYZ
    dof rx
    limits (0.0 90.0)
  end
  begin
     id 30
     name rthumb
     direction -0.707107 -6.34969e-011 0.707107   
     length 0.894259   
     axis -90 -45 3.84942e-014   XYZ
    dof rx rz
    limits (-45.0 45.0)
           (-45.0 45.0)
  end
:hierarchy
  begin
    root lhipjoint rhipjoint lowerback
    lhipjoint lfemur
    lfemur ltibia
    ltibia lfoot
    lfoot ltoes
    rhipjoint rfemur
    rfemur rtibia
    rtibia rfoot
    rfoot rtoes
    lowerback upperback
    upperback thorax
    thorax lowerneck lclavicle rclavicle
    lowerneck upperneck
    upperneck head
    lclavicle lhumerus
    lhumerus lradius
    lradius lwrist
    lwrist lhand lthumb
    lhand lfingers
    rclavicle rhumerus
    rhumerus rradius
    rradius rwrist
    rwrist rhand rthumb
    rhand rfingers
  end

#!OML:ASF F:\VICON\USERDATA\INSTALL\rory3\rory3.ASF
:FULLY-SPECIFIED
:DEGREES
151
root 15.6855 18.0696 -3.25699 -3.36867 -20.5411 6.07918
lowerback 12.6123 1.01755 -4.77516
upperback 0.948367 0.591916 -1.08866
thorax -6.11982 0.3967 1.44321
lowerneck -15.3437 -7.3248 -13.6027
upperneck 33.4883 -10.0129 8.61508
head 15.5489 -4.94657 4.15429
rclavicle 4.12478e-015 8.94531e-015
rhumerus -32.8486 -6.01237 -83.7041
rradius 37.2591
rwrist 2.87864
rhand -16.4898 9.58211
rfingers 7.12502
rthumb 9.72763 -20.1732
lclavicle 4.12478e-015 8.94531e-015
lhumerus -31.0569 8.28326 78.9745
lradius 26.8596
lwrist -10.1449
lhand -17.9152 26.7182
lfingers 7.12502
lthumb 8.35214 56.5331
rfemur -14.2774 -3.5175 14.3411
rtibia 63.6561
rfoot -1.46387 -7.11777
rtoes 10.8168
lfemur -2.17999 1.32468 -26.5165
ltibia 5.94286
lfoot -0.889201 -4.63162
ltoes -9.52884
152
root 15.6716 18.0636 -3.17456 -3.42168 -20.6012 6.06704
lowerback 12.6417 0.950307 -4.76519
upperback 1.01645 0.505358 -1.07398
thorax -6.05859 0.3519 1.4689
lowerneck -15.5049 -7.29476 -13.5672
upperneck 33.6159 -9.95685 8.58032
head 15.6346 -4.9206 4.14487
rclavicle 2.77553e-014 -2.98177e-015
rhumerus -32.7295 -6.11284 -83.6648
rradius 37.3668
rwrist 2.71405
rhand -16.4335 9.74458
rfingers 7.12502
rthumb 9.78194 -20.0082
lclavicle 2.77553e-014 -2.98177e-015
lhumerus -30.502 8.20159 79.0661
lradius 26.867
lwrist -9.8565
lhand -18.4325 26.6739
lfingers 7.12502
lthumb 7.85287 56.5081
rfemur -15.212 -3.82112 14.3755
rtibia 63.814
rfoot -2.25425 -7.33674
rtoes 11.3858
lfemur -2.35652 1.1395 -26.6122
ltibia 7.02734
lfoot -1.54456 -4.2487
ltoes -9.89211
153
root 15.6573 18.0601 -3.08738 -3.5179 -20.5868 6.13605
lowerback 12.6483 0.848375 -4.83405
upperback 1.09601 0.36407 -1.0508
thorax -5.96969 0.281656 1.55784
lowerneck -15.4406 -7.26222 -13.7278
upperneck 33.5166 -9.90391 8.70547
head 15.5838 -4.90414 4.23595
rclavicle 4.33102e-014 4.57205e-015
rhumerus -32.6245 -6.18581 -83.6064
rradius 37.452
rwrist 2.53102
rhand -16.3178 9.57074
rfingers 7.12502
rthumb 9.89355 -20.1768
lclavicle 4.33102e-014 4.57205e-015
lhumerus -30.0044 8.09726 79.2256
lradius 26.8496
lwrist -9.50755
lhand -19.439 26.5879
lfingers 7.12502
lthumb 6.88142 56.4561
rfemur -16.0379 -4.24978 14.299
rtibia 63.8208
rfoot -2.91589 -7.47729
rtoes 11.3222
lfemur -2.62157 0.881962 -26.8036
ltibia 8.31305
lfoot -2.30706 -3.90986
ltoes -10.6736
154
root 15.6408 18.0541 -3.00475 -3.49584 -20.6269 6.13519
lowerback 12.6674 0.761139 -4.89389
upperback 1.09731 0.242472 -0.994952
thorax -5.97175 0.224383 1.67188
lowerneck -15.278 -7.20223 -13.834
upperneck 33.3148 -9.81928 8.79894
head 15.4486 -4.87261 4.30831
rclavicle -2.60905e-015 3.18055e-015
rhumerus -32.6382 -6.29656 -83.5156
rradius 37.5423
rwrist 2.57244
rhand -16.3292 9.43797
rfingers 7.12502
rthumb 9.88259 -20.3101
lclavicle -2.60905e-015 3.18055e-015
lhumerus -29.4816 7.89638 79.3194
lradius 26.8338
lwrist -9.5882
lhand -19.3982 27.4805
lfingers 7.12502
lthumb 6.92073 57.3474
rfemur -16.9412 -4.59016 14.3326
rtibia 63.7063
rfoot -3.76831 -7.4824
rtoes 11.0405
lfemur -3.00925 0.666152 -26.8923
ltibia 9.63002
lfoot -3.00279 -3.56559
ltoes -10.9965
155
root 15.6251 18.0405 -2.92804 -3.4308 -20.7713 6.03251
lowerback 12.7457 0.716601 -4.86603
upperback 1.08668 0.186065 -0.933495
thorax -6.02304 0.198102 1.73067
lowerneck -15.3109 -7.1301 -13.7328
upperneck 33.2358 -9.71196 8.74937
head 15.3895 -4.81896 4.28687
rclavicle -2.21645e-014 1.78906e-014
rhumerus -32.5928 -6.43512 -83.4585
rradius 37.5382
rwrist 2.72823
rhand -16.2834 9.65219
rfingers 7.12502
rthumb 9.92673 -20.0938
lclavicle -2.21645e-014 1.78906e-014
lhumerus -28.9725 7.4688 79.392
lradius 26.8949
lwrist -9.54172
lhand -19.2591 27.4111
lfingers 7.12502
lthumb 7.05507 57.2735
rfemur -17.9444 -4.79254 14.5206
rtibia 63.4824
rfoot -4.7365 -7.32506
rtoes 10.8801
lfemur -3.33778 0.548444 -26.8784
ltibia 10.8521
lfoot -3.7065 -3.10082
ltoes -10.4041
156
root 15.6099 18.0226 -2.8472 -3.42741 -20.87 5.90681
lowerback 12.8201 0.675689 -4.74202
upperback 1.11909 0.148274 -0.896544
thorax -6.02718 0.176418 1.70647
lowerneck -15.3939 -7.14155 -13.6809
upperneck 33.2354 -9.73021 8.73531
head 15.4067 -4.81977 4.2662
rclavicle -1.70458e-014 5.96354e-015
rhumerus -32.5278 -6.56158 -83.3938
rradius 37.5069
rwrist 2.80126
rhand -16.0559 9.98461
rfingers 7.12502
rthumb 10.1462 -19.7507
lclavicle -1.70458e-014 5.96354e-015
lhumerus -28.4583 7.25058 79.4044
lradius 26.9681
lwrist -9.53185
lhand -19.7007 26.2612
lfingers 7.12502
lthumb 6.62874 56.1375
rfemur -18.846 -4.93647 14.7457
rtibia 63.1229
rfoot -5.56003 -7.28436
rtoes 10.9132
lfemur -3.54843 0.232361 -26.8472
ltibia 12.0939
lfoot -4.48168 -2.45975
ltoes -10.3078
